<?xml version="1.0" encoding="iso-8859-1"?>
<!-- Generator: Adobe Illustrator 16.0.0, SVG Export Plug-In . SVG Version: 6.00 Build 0)  -->
<!DOCTYPE svg PUBLIC "-//W3C//DTD SVG 1.1//EN" "http://www.w3.org/Graphics/SVG/1.1/DTD/svg11.dtd">
<svg version="1.1" id="Capa_1" xmlns="http://www.w3.org/2000/svg" xmlns:xlink="http://www.w3.org/1999/xlink" x="0px" y="0px"
	 width="611.777px" height="611.777px" viewBox="0 0 611.777 611.777" style="enable-background:new 0 0 611.777 611.777;"
	 xml:space="preserve">
<g>
	<path d="M611.681,80.498c0.259-0.738-0.035-1.29-0.533-1.602c-0.346-0.348-0.848-0.536-1.473-0.292
		c-43.224,17.107-72.838,49.533-97.41,86.64c-3.905-0.51-7.82-0.967-11.741-0.958c14.016-15.787,21.216-35.952,31.301-54.281
		c0.538-0.988-0.279-1.98-1.203-2.232c-4.596-1.246-8.074,2.019-12.015,2.6c12.07-20.975,16.204-45.077,16.179-69.088
		c0-0.782-0.462-1.214-1.031-1.333c-0.446-0.224-0.975-0.229-1.482,0.213c-60.215,52.191-67.857,133.642-81.182,208.027
		c-1.173-0.251-2.361-0.568-3.585-0.995c-9.385-3.225-17.986-8.095-26.888-12.334c-21.876-10.43-44.514-14.996-68.431-10.509
		c2.295-4.844,12.604-14.132,15.3-14.568c8.195-1.335,5.961-11.992,0-14.414c-8.064-3.29-15.742-4.445-24.405-4.377
		c-2.214,0.021-4.58,0.726-6.678,1.287c-7.027,1.884-4.266,4.385-4.52-2.755c-0.589-16.706-10.572-31.361-23.516-41.241
		c-1.498-1.137-2.971-1.548-4.342-1.45c-1.361-0.099-2.838,0.317-4.332,1.45c-11.344,8.653-22.637,22.729-23.354,37.709
		c-0.172,3.765-0.502,6.385-0.502,6.385s-5.226-0.566-8.876-1.123c-8.922-1.34-18.184,0.765-26.396,4.113
		c-5.957,2.428-8.196,13.083,0,14.414c2.712,0.437,13.081,9.785,15.326,14.622c-9.714-1.628-19.459-2.346-29.336-1.222
		c-15.63,1.777-30.062,7.097-43.97,14.147c-7.13,3.616-14.213,7.348-21.805,9.958c-2.625,0.901-5.128,1.358-7.531,1.435
		c-10.465-76.896-12.41-162.193-71.884-219.064c-0.487-0.467-1.016-0.487-1.467-0.285c-0.579,0.092-1.066,0.498-1.102,1.272
		c-1.193,23.988,1.747,48.261,12.786,69.805c-3.905-0.777-7.226-4.208-11.872-3.185c-0.944,0.203-1.808,1.161-1.315,2.169
		c9.171,18.804,15.376,39.301,28.604,55.753c-3.92-0.203-7.851,0.063-11.781,0.378c-22.719-38.26-50.719-72.105-93.054-91.302
		c-0.606-0.282-1.117-0.122-1.475,0.218c-0.521,0.274-0.843,0.815-0.62,1.564c6.807,23.041,17.624,44.968,35.173,61.639
		c-3.943,0.556-8.206-1.582-12.263,0.922c-0.805,0.502-1.315,1.688-0.518,2.483c14.876,14.711,27.522,31.991,45.438,43.145
		c-9.947,2.922-18.9,8.985-29.074,10.707c-1.404,0.238-1.742,2.095-0.615,2.889c15.567,10.905,30.384,24.862,49.041,29.919
		c-8.323,4.812-17.077,11.352-18.397,21.259c-1.143,8.56,6.347,15.442,12.761,19.665c13.284,8.747,33.23,13.848,50.866,12.225
		c0.066,1.349,0.132,2.689,0.218,4.024c-0.305,0.427-0.615,0.854-0.959,1.29c-2.717,4.312-4.906,10.42-5.393,17.43
		c-0.635,7.015,0.269,14.774,1.788,22.848c1.609,8.054,3.971,16.534,6.327,25.034c0.269,1.006,0.543,2.031,0.828,3.053
		c0.269,1.127,0.538,2.265,0.807,3.407c0.589,2.274,1.188,4.59,1.793,6.916c0.66,2.356,0.771,4.464,1.213,6.784
		c0.279,2.295,0.929,4.56,0.959,7.018c0.117,2.442,0.229,4.905,0.346,7.384c0.152,2.493-0.152,5.021-0.239,7.561
		c-0.142,5.094-0.945,10.272-1.584,15.478c-1.467,10.445-2.447,21.236-2.569,32.281c0.193,2.925,0.021,5.22,0.645,8.363
		c0.375,3.057,1.213,5.809,2.062,8.627c1.94,5.561,4.951,10.578,8.135,15.052c3.174,4.494,6.515,8.521,9.384,12.491
		c2.864,3.961,5.25,7.855,7.008,11.862c0.406,1.016,0.904,1.985,1.224,3.012c0.31,1.03,0.635,2.046,0.98,3.047
		c0.386,0.984,0.487,2.066,0.751,3.087l0.34,1.544l0.086,0.381l0.03,0.142l0.041,0.478c0.32,3.337-0.528,7.455-1.528,11.573
		c-2.107,8.257-4.997,16.463-7.394,24.161c-2.326,7.754-4.347,15.111-5.038,22.073c-0.371,3.474-0.391,6.84,0.082,10.009
		c0.467,3.159,1.574,6.14,3.184,8.409c3.331,4.667,7.683,5.891,10.176,6.343c1.295,0.305,2.311,0.269,2.971,0.365
		c0.666,0.062,1,0.092,1,0.092l0.234-1.255c0,0-0.31-0.116-0.904-0.36c-0.563-0.279-1.488-0.522-2.514-1.132
		c-2.127-0.996-5.124-3.037-6.51-6.586c-0.675-1.777-1.051-3.875-0.935-6.322c0.152-2.458,0.67-5.165,1.432-8.074
		c1.635-5.83,4.316-12.416,7.48-19.646c3.031-7.317,6.774-15.153,9.638-24.521c1.311-4.692,2.758-9.897,2.275-16.194l-0.071-0.898
		c0.021,0.106-0.173-1.351-0.102-0.792l-0.036-0.117l-0.051-0.254l-0.117-0.503l-0.482-1.995c-0.36-1.325-0.559-2.696-1.082-3.996
		c-0.868-2.651-1.899-5.262-3.209-7.749c-2.534-5.007-5.743-9.659-9.216-13.771c-3.362-3.875-6.764-7.8-10.197-11.756
		c-3.179-3.844-6.108-7.678-8.287-11.923c-1.021-2.138-2.123-4.357-2.757-6.541c-0.863-1.985-1.249-5.053-1.803-7.398
		c-1.61-10.212-1.965-20.784-0.523-31.133c1.132-10.395,3.438-20.535,4.408-30.844c0.437-2.529,0.264-5.21,0.396-7.81
		c0.036-1.315,0.061-2.626,0.091-3.926c0.041-1.315,0.071-2.636-0.112-3.788c-0.259-2.396-0.508-4.769-0.756-7.109
		c-0.142-1.168-0.285-2.325-0.432-3.479c-0.224-1.533-0.462-2.452-0.696-3.696c-1.93-9.288-4.712-17.367-6.647-24.897
		c-1.803-6.444-3.006-12.373-3.585-17.717c2.899,17.447,8.312,34.124,17.539,49.713c26.136,44.143,86.956,57.184,124.979,30.727
		c17.3-12.034,35.434-11.542,53.09-0.111c11.796,7.633,24.293,12.451,38.557,13.294c32.012,1.89,58.945-8.541,78.8-33.646
		c1.442-1.828,2.793-3.682,4.104-5.545c0.035,1.056,0.102,2.107,0.279,3.144c0.97,10.298,3.271,20.443,4.397,30.838
		c1.452,10.35,1.087,20.927-0.513,31.139c-0.549,2.346-0.939,5.413-1.803,7.394c-0.63,2.184-1.737,4.402-2.758,6.54
		c-2.178,4.25-5.113,8.084-8.287,11.923c-3.433,3.961-6.835,7.882-10.196,11.756c-3.479,4.118-6.688,8.774-9.217,13.771
		c-1.31,2.493-2.346,5.104-3.214,7.754c-0.519,1.3-0.716,2.666-1.082,3.991l-0.478,2.001l-0.116,0.503l-0.062,0.249l-0.025,0.121
		c0.076-0.559-0.121,0.899-0.106,0.787l-0.065,0.899c-0.482,6.297,0.97,11.501,2.279,16.193c2.864,9.369,6.597,17.199,9.633,24.521
		c3.169,7.241,5.84,13.817,7.48,19.646c0.756,2.91,1.284,5.622,1.432,8.074c0.122,2.453-0.259,4.545-0.93,6.322
		c-1.386,3.555-4.382,5.586-6.51,6.591c-1.03,0.609-1.949,0.854-2.519,1.128c-0.589,0.238-0.903,0.365-0.903,0.365l0.229,1.254
		c0,0,0.345-0.035,1.01-0.096c0.66-0.097,1.676-0.062,2.971-0.366c2.488-0.452,6.846-1.665,10.177-6.342
		c1.609-2.271,2.712-5.246,3.179-8.409c0.473-3.159,0.452-6.535,0.086-10.009c-0.695-6.962-2.711-14.32-5.037-22.074
		c-2.396-7.693-5.286-15.904-7.403-24.161c-0.99-4.113-1.839-8.231-1.528-11.572l0.045-0.482l0.031-0.138l0.091-0.376l0.341-1.543
		c0.264-1.021,0.36-2.098,0.756-3.093c0.341-0.995,0.665-2.016,0.976-3.047c0.324-1.021,0.827-1.995,1.224-3.011
		c1.757-4.007,4.148-7.901,7.018-11.857c2.864-3.981,6.195-7.998,9.379-12.492c3.179-4.474,6.195-9.49,8.135-15.056
		c0.838-2.818,1.676-5.565,2.057-8.622c0.625-3.148,0.457-5.449,0.65-8.369c-0.127-11.05-1.107-21.835-2.569-32.28
		c-0.64-5.21-1.438-10.385-1.59-15.473c-0.091-2.539-0.386-5.073-0.238-7.562c0.111-2.482,0.233-4.94,0.345-7.383
		c0.036-2.463,0.686-4.718,0.965-7.023c0.442-2.311,0.554-4.423,1.209-6.779c0.604-2.33,1.203-4.641,1.792-6.921
		c0.279-1.143,0.544-2.28,0.812-3.412l0,0c6.987-16.047,10.263-33.035,11.345-50.526c16.016,0.93,33.281-3.095,45.453-10.285
		c6.606-3.905,14.421-10.41,13.71-19.017c-0.833-9.963-9.262-16.919-17.331-22.13c18.88-4.138,34.353-17.362,50.435-27.487
		c1.173-0.734,0.924-2.61-0.467-2.917c-10.08-2.214-18.728-8.714-28.513-12.116c18.442-10.258,31.914-26.903,47.494-40.86
		c0.838-0.759,0.391-1.965-0.396-2.506c-3.925-2.699-8.297-0.764-12.202-1.519C591.882,124.549,603.754,103.178,611.681,80.498z
		 M110.444,158.696c1.285,0.193,2.499-1.424,1.529-2.516c-14.234-16.12-20.586-36.768-29.635-55.873
		c4.301,0.345,7.51,4.113,12.081,3.433c0.924-0.14,1.823-1.216,1.305-2.173c-10.379-19.063-14.117-40.451-14.01-61.916
		l64.84,208.017c-1.95-0.734-3.793-1.851-5.525-3.402c-14.305-28.208-27.873-58.028-44.041-85.734
		C101.472,158.208,105.971,158.041,110.444,158.696z M90.422,259.824c-7.378-3.26-16.163-8.696-18.2-17.092
		c-2.737-11.347,12.152-19.857,20.068-24.143c1.468-0.795,0.975-2.729-0.563-3.026c-18.763-3.578-33.688-17.268-48.814-28.287
		c10.044-2.668,19.058-8.843,29.406-10.862c1.274-0.251,1.879-2.173,0.609-2.887c-18.773-10.499-31.59-27.88-46.466-42.919
		c4.179-1.097,8.455,1.404,12.54-0.759c0.822-0.437,1.323-1.752,0.515-2.485c-16.104-14.549-26.705-33.487-33.71-53.781
		l127.244,171.09c-0.756,7.66-0.944,15.317-0.701,22.978C118.051,268.865,102.518,265.153,90.422,259.824z M266.531,329.806
		c-3.9,0.111-7.81,0.021-9.963,0.021c-12.761-0.29-23.694,1.31-34.794,0.264c-19.479-1.838-33.225-11.674-42.975-28.013
		c-1.818-3.036-1.853-6.172,1.473-7.949c17.768-9.549,36.369-15.544,56.721-10.339c16.458,4.217,25.674,16.295,31.625,31.372
		c1.056,2.681,1.91,5.453,2.691,8.226C272.615,328.013,271.411,329.654,266.531,329.806z M428.965,302.868
		c-9.998,16.579-24.308,25.729-43.944,27.38c-14.849,1.239-29.514-1.168-44.275-0.543c-2.955,0.127-5.286-1.32-4.382-4.656
		c3.605-13.365,9.201-25.644,20.637-34.297c8.46-6.401,18.093-9.191,27.081-8.777c16.285-0.061,29.665,4.659,42.487,11.291
		C431.144,295.624,431.708,298.302,428.965,302.868z M531.434,50.129c-0.944,21.444-5.728,42.617-17.026,61.157
		c-0.554,0.929,0.294,2.054,1.198,2.234c4.534,0.911,7.917-2.699,12.232-2.834c-9.973,18.642-17.32,38.948-32.326,54.355
		c-1.025,1.041,0.106,2.714,1.401,2.59c4.499-0.437,8.988-0.053,13.462,0.487c-16.229,24.917-30.306,51.791-44.757,77.467
		c-2.118,1.513-4.393,2.415-6.81,2.836L531.434,50.129z M569.28,139.811c-0.838,0.686-0.4,2.034,0.392,2.501
		c3.98,2.356,8.368,0.074,12.486,1.374c-15.579,14.29-29.244,31.026-48.5,40.596c-1.305,0.642-0.797,2.6,0.468,2.909
		c10.231,2.519,18.94,9.138,28.833,12.294c-15.646,10.265-31.215,23.206-50.141,25.87c-1.549,0.213-2.133,2.125-0.705,2.988
		c7.697,4.659,22.149,13.893,18.864,25.095c-2.447,8.287-11.486,13.284-19.022,16.17c-10.679,4.104-23.866,6.868-36.444,6.302
		c0.462-9.77,0.279-19.685-0.314-29.686L605.583,87.739C597.6,107.66,586.088,126.062,569.28,139.811z"/>
</g>
<g>
</g>
<g>
</g>
<g>
</g>
<g>
</g>
<g>
</g>
<g>
</g>
<g>
</g>
<g>
</g>
<g>
</g>
<g>
</g>
<g>
</g>
<g>
</g>
<g>
</g>
<g>
</g>
<g>
</g>
</svg>
